# File created by Blade
# Date/Time:  Tue Sep 23 19:15:59 2014
# Frame Rate: 120.000 fps
#------------------------------------------------------
:FULLY-SPECIFIED
:DEGREES
2312
root -7.886357 32.494233 -3.716373 38.153373 8.317864 -0.306450
Spine -39.115654 -6.299339 8.643976
Head -1.355452 -3.101300 -7.432742
LeftShoulder -22.206692 43.819702 21.913952
LeftArm 44.417900 -48.358756 -54.930457
LeftForeArm 94.818791 -0.000000 -5.885985
LeftHand -17.160309 -0.000000 66.991283
LeftHandThumb1 -26.253704 0.000000 33.147579
RightShoulder -19.296780 -42.397772 -25.285441
RightArm 41.947692 31.507802 44.776144
RightForeArm 11.798211 -0.000000 4.756932
RightHand 15.028098 -0.000000 -5.771448
RightHandThumb1 -24.326973 -0.000000 -32.862282
LeftUpLeg -37.543296 2.221437 6.747969
LeftLeg 4.304463 -0.000000 -0.000000
LeftFoot -9.712141 0.583184 -4.924511
LeftToeBase -4.191413 -0.000000 0.000000
RightUpLeg -33.868306 -7.451522 2.712520
RightLeg -1.710978 -0.000000 0.000000
RightFoot -9.441514 -3.032268 20.552052
RightToeBase 15.122455 -0.000000 -0.000000
2313
root -7.892263 32.490105 -3.691931 38.142985 8.330179 -0.310408
Spine -39.173230 -6.245676 8.567248
Head -1.293964 -3.109150 -7.468461
LeftShoulder -22.245592 43.882745 21.873402
LeftArm 44.623453 -48.109090 -54.762508
LeftForeArm 94.707123 -0.000000 -6.223638
LeftHand -16.802771 0.000000 66.869195
LeftHandThumb1 -26.253704 0.000000 33.147579
RightShoulder -19.223459 -42.362030 -25.379636
RightArm 41.906778 31.277949 44.576136
RightForeArm 12.015418 -0.000000 4.468376
RightHand 14.501935 0.000000 -5.259127
RightHandThumb1 -24.326973 -0.000000 -32.862282
LeftUpLeg -37.530083 2.436449 6.603678
LeftLeg 4.355709 -0.000000 -0.000000
LeftFoot -9.681104 0.460617 -4.729374
LeftToeBase -4.193762 -0.000000 0.000000
RightUpLeg -33.773611 -7.571987 2.858474
RightLeg -1.858600 -0.000000 0.000000
RightFoot -9.248848 -3.107003 20.039213
RightToeBase 15.086369 -0.000000 -0.000000
2314
root -7.899524 32.486041 -3.668583 38.130121 8.356930 -0.309702
Spine -39.227507 -6.208247 8.497284
Head -1.230628 -3.076658 -7.509370
LeftShoulder -22.326906 43.987215 21.754688
LeftArm 44.957896 -47.857051 -54.596329
LeftForeArm 94.869405 -0.000000 -6.697349
LeftHand -16.830013 0.000000 66.738445
LeftHandThumb1 -26.253704 0.000000 33.147579
RightShoulder -19.122347 -42.330482 -25.506271
RightArm 42.003237 31.229542 44.667536
RightForeArm 12.034104 0.000000 4.201828
RightHand 13.967568 -0.000000 -4.404297
RightHandThumb1 -24.326973 -0.000000 -32.862282
LeftUpLeg -37.488483 2.556155 6.530779
LeftLeg 4.351491 -0.000000 -0.000000
LeftFoot -9.614790 0.445930 -4.576346
LeftToeBase -4.173414 -0.000000 0.000000
RightUpLeg -33.691227 -7.714164 3.022039
RightLeg -1.986511 -0.000000 0.000000
RightFoot -9.083251 -3.198122 19.541974
RightToeBase 15.057880 -0.000000 -0.000000
2315
root -7.908236 32.481960 -3.645346 38.125700 8.373833 -0.310906
Spine -39.291726 -6.168634 8.429308
Head -1.160732 -2.995805 -7.552395
LeftShoulder -22.395212 44.040935 21.658589
LeftArm 45.255987 -47.590628 -54.431259
LeftForeArm 94.591225 -0.000000 -7.087233
LeftHand -16.312451 -0.000000 66.489704
LeftHandThumb1 -26.253704 0.000000 33.147579
RightShoulder -19.000550 -42.283162 -25.624876
RightArm 41.997214 30.964562 44.517860
RightForeArm 12.268937 0.000000 3.845184
RightHand 13.750297 0.000000 -3.603268
RightHandThumb1 -24.326973 -0.000000 -32.862282
LeftUpLeg -37.446914 2.660395 6.473784
LeftLeg 4.334402 -0.000000 -0.000000
LeftFoot -9.552592 0.488193 -4.448230
LeftToeBase -4.162661 -0.000000 0.000000
RightUpLeg -33.616831 -7.822272 3.170533
RightLeg -2.121014 -0.000000 0.000000
RightFoot -8.944928 -3.314777 19.090373
RightToeBase 15.069584 -0.000000 -0.000000
2316
root -7.918208 32.478913 -3.621670 38.106053 8.355395 -0.315709
Spine -39.344781 -6.119073 8.355535
Head -1.069823 -2.918493 -7.626229
LeftShoulder -22.498761 44.140183 21.504238
LeftArm 45.694160 -47.371206 -54.351055
LeftForeArm 94.778047 -0.000000 -7.607320
LeftHand -16.076786 -0.000000 66.388441
LeftHandThumb1 -26.253704 0.000000 33.147579
RightShoulder -18.914095 -42.343730 -25.703170
RightArm 42.153548 30.731348 44.448858
RightForeArm 12.607290 -0.000000 3.491575
RightHand 13.378127 -0.000000 -2.789817
RightHandThumb1 -24.326973 -0.000000 -32.862282
LeftUpLeg -37.385795 2.788059 6.401301
LeftLeg 4.329742 -0.000000 -0.000000
LeftFoot -9.525510 0.573609 -4.245082
LeftToeBase -4.179659 -0.000000 0.000000
RightUpLeg -33.547208 -7.887559 3.293926
RightLeg -2.210450 -0.000000 0.000000
RightFoot -8.873852 -3.428553 18.736650
RightToeBase 15.236110 -0.000000 -0.000000
2317
root -7.926903 32.475005 -3.597897 38.077563 8.346866 -0.316712
Spine -39.383477 -6.072905 8.285138
Head -0.979035 -2.867009 -7.699823
LeftShoulder -22.617743 44.167031 21.366243
LeftArm 46.062061 -47.040704 -54.216157
LeftForeArm 94.714394 -0.000000 -7.983886
LeftHand -15.747497 0.000000 66.157330
LeftHandThumb1 -26.253704 0.000000 33.147579
RightShoulder -18.831687 -42.374517 -25.780136
RightArm 42.377148 30.593712 44.518764
RightForeArm 12.721931 -0.000000 3.093169
RightHand 13.144378 -0.000000 -2.061973
RightHandThumb1 -24.326973 -0.000000 -32.862282
LeftUpLeg -37.304993 2.883997 6.348711
LeftLeg 4.305947 -0.000000 -0.000000
LeftFoot -9.533251 0.627035 -4.173435
LeftToeBase -4.129922 -0.000000 0.000000
RightUpLeg -33.473203 -7.962207 3.406733
RightLeg -2.284235 -0.000000 0.000000
RightFoot -8.824247 -3.515384 18.451198
RightToeBase 15.443278 -0.000000 -0.000000
2318
root -7.935865 32.471946 -3.574548 38.068014 8.351147 -0.301554
Spine -39.447056 -6.053699 8.210028
Head -0.884567 -2.780123 -7.734031
LeftShoulder -22.657288 44.224891 21.264963
LeftArm 46.534528 -46.940798 -54.370148
LeftForeArm 94.851919 -0.000000 -8.248560
LeftHand -15.481067 0.000000 66.085622
LeftHandThumb1 -26.253704 0.000000 33.147579
RightShoulder -18.726188 -42.370040 -25.844691
RightArm 42.531576 30.312073 44.449803
RightForeArm 13.128506 -0.000000 2.683181
RightHand 13.020524 -0.000000 -1.675569
RightHandThumb1 -24.326973 -0.000000 -32.862282
LeftUpLeg -37.251085 2.921580 6.315529
LeftLeg 4.283312 -0.000000 -0.000000
LeftFoot -9.486642 0.732649 -4.031124
LeftToeBase -4.142904 -0.000000 0.000000
RightUpLeg -33.426363 -8.034656 3.496630
RightLeg -2.329484 -0.000000 0.000000
RightFoot -8.803180 -3.596837 18.206716
RightToeBase 15.597364 -0.000000 -0.000000
2319
root -7.944342 32.469268 -3.551373 38.043993 8.356164 -0.292522
Spine -39.494156 -6.048802 8.160461
Head -0.775882 -2.673100 -7.797237
LeftShoulder -22.703624 44.287230 21.185718
LeftArm 46.931312 -46.813516 -54.581425
LeftForeArm 94.395501 -0.000000 -8.342034
LeftHand -14.725141 0.000000 65.674430
LeftHandThumb1 -26.253704 0.000000 33.147579
RightShoulder -18.547483 -42.284837 -25.968368
RightArm 42.645211 30.058199 44.440725
RightForeArm 13.429961 -0.000000 2.261579
RightHand 13.084503 -0.000000 -1.264617
RightHandThumb1 -24.326973 -0.000000 -32.862282
LeftUpLeg -37.178176 2.922892 6.313282
LeftLeg 4.258230 -0.000000 -0.000000
LeftFoot -9.441116 0.842831 -3.884940
LeftToeBase -4.139603 -0.000000 0.000000
RightUpLeg -33.379228 -8.122869 3.590950
RightLeg -2.342663 -0.000000 0.000000
RightFoot -8.782555 -3.623384 17.986080
RightToeBase 15.646195 -0.000000 -0.000000
2320
root -7.953654 32.465468 -3.523845 37.941304 8.309152 -0.309152
Spine -39.461605 -6.011083 8.082850
Head -0.661259 -2.552995 -7.826173
LeftShoulder -22.763078 44.321774 21.086713
LeftArm 47.346368 -46.548171 -54.613179
LeftForeArm 94.860505 -0.000000 -8.739424
LeftHand -15.022344 -0.000000 65.700807
LeftHandThumb1 -26.253704 0.000000 33.147579
RightShoulder -18.480828 -42.261697 -25.994343
RightArm 42.909790 29.730537 44.386954
RightForeArm 13.857521 -0.000000 1.778936
RightHand 12.868003 -0.000000 -0.851281
RightHandThumb1 -24.326973 -0.000000 -32.862282
LeftUpLeg -37.001263 2.963208 6.319856
LeftLeg 4.220518 -0.000000 -0.000000
LeftFoot -9.432996 0.919482 -3.805032
LeftToeBase -4.124822 -0.000000 0.000000
RightUpLeg -33.251433 -8.136969 3.639712
RightLeg -2.339572 -0.000000 0.000000
RightFoot -8.780226 -3.624132 17.813613
RightToeBase 15.724875 -0.000000 -0.000000
2321
root -7.962391 32.462193 -3.495054 37.825246 8.242923 -0.317989
Spine -39.409886 -5.954120 7.990992
Head -0.562587 -2.457577 -7.895821
LeftShoulder -22.809397 44.396869 21.015383
LeftArm 47.872617 -46.476205 -54.995019
LeftForeArm 94.628980 -0.000000 -8.812186
LeftHand -14.265895 -0.000000 65.485380
LeftHandThumb1 -26.253704 0.000000 33.147579
RightShoulder -18.387489 -42.204481 -26.046987
RightArm 43.146472 29.513245 44.468863
RightForeArm 14.154811 -0.000000 1.419725
RightHand 12.996168 -0.000000 -0.403403
RightHandThumb1 -24.326973 -0.000000 -32.862282
LeftUpLeg -36.803591 2.996118 6.316192
LeftLeg 4.186158 -0.000000 -0.000000
LeftFoot -9.420627 0.995213 -3.755467
LeftToeBase -3.993860 -0.000000 0.000000
RightUpLeg -33.113027 -8.115924 3.648243
RightLeg -2.319713 -0.000000 0.000000
RightFoot -8.794254 -3.647899 17.675407
RightToeBase 15.800013 -0.000000 -0.000000
2322
root -7.970494 32.460313 -3.467253 37.764010 8.221971 -0.328776
Spine -39.420897 -5.922249 7.950234
Head -0.457174 -2.353499 -7.995590
LeftShoulder -22.823696 44.415779 20.935689
LeftArm 48.163624 -46.213910 -55.028604
LeftForeArm 94.908074 -0.000000 -9.069821
LeftHand -14.319997 -0.000000 65.357861
LeftHandThumb1 -26.253704 0.000000 33.147579
RightShoulder -18.281223 -42.208681 -26.146552
RightArm 43.428389 29.365181 44.711973
RightForeArm 14.331710 0.000000 1.173133
RightHand 12.882230 -0.000000 -0.124014
RightHandThumb1 -24.326973 -0.000000 -32.862282
LeftUpLeg -36.677979 3.001448 6.331440
LeftLeg 4.152699 -0.000000 -0.000000
LeftFoot -9.369401 1.082235 -3.658860
LeftToeBase -3.931862 -0.000000 0.000000
RightUpLeg -32.997962 -8.083847 3.648305
RightLeg -2.346014 -0.000000 0.000000
RightFoot -8.793346 -3.669270 17.641753
RightToeBase 15.898376 -0.000000 -0.000000
2323
root -7.977149 32.458460 -3.438699 37.687199 8.178663 -0.336154
Spine -39.424834 -5.907631 7.926186
Head -0.340448 -2.252026 -8.090715
LeftShoulder -22.879967 44.509576 20.818320
LeftArm 48.553900 -46.031161 -55.216841
LeftForeArm 94.712003 -0.000000 -9.260510
LeftHand -13.842472 -0.000000 65.171683
LeftHandThumb1 -26.253704 0.000000 33.147579
RightShoulder -18.117002 -42.214036 -26.261695
RightArm 43.693079 29.236208 44.920295
RightForeArm 14.643683 -0.000000 0.967416
RightHand 12.864042 -0.000000 0.414989
RightHandThumb1 -24.326973 -0.000000 -32.862282
LeftUpLeg -36.536150 3.042118 6.313077
LeftLeg 4.119224 -0.000000 -0.000000
LeftFoot -9.281338 1.144039 -3.517426
LeftToeBase -3.813437 -0.000000 0.000000
RightUpLeg -32.856535 -7.998597 3.597160
RightLeg -2.379506 -0.000000 0.000000
RightFoot -8.792820 -3.728584 17.620765
RightToeBase 15.966852 -0.000000 -0.000000
2324
root -7.984249 32.455925 -3.405693 37.579929 8.110437 -0.344033
Spine -39.391531 -5.871456 7.884341
Head -0.255271 -2.088205 -8.247221
LeftShoulder -22.910681 44.540238 20.745392
LeftArm 48.915137 -45.892533 -55.494603
LeftForeArm 94.771663 -0.000000 -9.351946
LeftHand -13.304865 0.000000 64.962534
LeftHandThumb1 -26.253704 0.000000 33.147579
RightShoulder -17.960616 -42.160200 -26.423338
RightArm 43.910351 29.023156 45.146627
RightForeArm 14.845805 0.000000 0.792775
RightHand 12.949365 0.000000 0.713879
RightHandThumb1 -24.326973 -0.000000 -32.862282
LeftUpLeg -36.350811 3.092222 6.290474
LeftLeg 4.085671 -0.000000 -0.000000
LeftFoot -9.148528 1.177337 -3.384494
LeftToeBase -3.688299 -0.000000 0.000000
RightUpLeg -32.675024 -7.881752 3.521517
RightLeg -2.419033 -0.000000 0.000000
RightFoot -8.819720 -3.801340 17.608775
RightToeBase 16.091387 -0.000000 -0.000000
